{
    "asset" : {
        "generator" : "Khronos glTF Blender I/O v1.4.40",
        "version" : "2.0"
    },
    "scene" : 0,
    "scenes" : [
        {
            "name" : "Scene",
            "nodes" : [
                7
            ]
        }
    ],
    "nodes" : [
        {
            "name" : "Bird_LeftWing_Tip",
            "rotation" : [
                0,
                -0.25543418526649475,
                0,
                0.9668265581130981
            ],
            "translation" : [
                4.510693550109863,
                0.23135137557983398,
                3.5762786865234375e-07
            ]
        },
        {
            "children" : [
                0
            ],
            "name" : "Bird_LeftWing_Pivot",
            "rotation" : [
                0,
                0.1748194843530655,
                0,
                0.9846004843711853
            ],
            "translation" : [
                0.8469966053962708,
                -0.19944095611572266,
                -2.1567214680828783e-09
            ]
        },
        {
            "name" : "Bird_RightWing_Tip",
            "rotation" : [
                3.480303246971754e-24,
                -0.9500176906585693,
                1.0892311333670378e-24,
                0.3121960163116455
            ],
            "scale" : [
                1,
                1.0000001192092896,
                1
            ],
            "translation" : [
                4.177523612976074,
                0.2233734130859375,
                1.7881393432617188e-07
            ]
        },
        {
            "children" : [
                2
            ],
            "name" : "Bird_RightWing_Pivot",
            "rotation" : [
                -7.963956633062132e-17,
                0.9500178098678589,
                6.746482429004534e-17,
                0.31219595670700073
            ],
            "translation" : [
                -0.793582558631897,
                -0.20741868019104004,
                -0.32048508524894714
            ]
        },
        {
            "children" : [
                1,
                3
            ],
            "name" : "Bird_Body",
            "rotation" : [
                0,
                -0.6463749408721924,
                0,
                0.7630199790000916
            ],
            "scale" : [
                1.0000001192092896,
                1,
                1.0000001192092896
            ],
            "translation" : [
                3.8988709449768066,
                -4.76837158203125e-07,
                2.0485215657117806e-07
            ]
        },
        {
            "children" : [
                4
            ],
            "name" : "Bird_Root",
            "rotation" : [
                -0.5,
                0.5000000596046448,
                -0.5000000596046448,
                0.5
            ],
            "scale" : [
                1,
                0.9999999403953552,
                1
            ],
            "translation" : [
                -0.00548853212967515,
                5.035918235778809,
                -2.427117347717285
            ]
        },
        {
            "mesh" : 0,
            "name" : "BirdRetop:polySurface1",
            "skin" : 0
        },
        {
            "children" : [
                6,
                5
            ],
            "name" : "Armature",
            "rotation" : [
                0.7071068286895752,
                0,
                0,
                0.7071067094802856
            ],
            "scale" : [
                0.06275448948144913,
                0.06275448948144913,
                0.06275448948144913
            ]
        }
    ],
    "animations" : [
        {
            "channels" : [
                {
                    "sampler" : 0,
                    "target" : {
                        "node" : 5,
                        "path" : "translation"
                    }
                },
                {
                    "sampler" : 1,
                    "target" : {
                        "node" : 5,
                        "path" : "rotation"
                    }
                },
                {
                    "sampler" : 2,
                    "target" : {
                        "node" : 5,
                        "path" : "scale"
                    }
                },
                {
                    "sampler" : 3,
                    "target" : {
                        "node" : 4,
                        "path" : "translation"
                    }
                },
                {
                    "sampler" : 4,
                    "target" : {
                        "node" : 4,
                        "path" : "rotation"
                    }
                },
                {
                    "sampler" : 5,
                    "target" : {
                        "node" : 4,
                        "path" : "scale"
                    }
                },
                {
                    "sampler" : 6,
                    "target" : {
                        "node" : 1,
                        "path" : "translation"
                    }
                },
                {
                    "sampler" : 7,
                    "target" : {
                        "node" : 1,
                        "path" : "rotation"
                    }
                },
                {
                    "sampler" : 8,
                    "target" : {
                        "node" : 1,
                        "path" : "scale"
                    }
                },
                {
                    "sampler" : 9,
                    "target" : {
                        "node" : 0,
                        "path" : "translation"
                    }
                },
                {
                    "sampler" : 10,
                    "target" : {
                        "node" : 0,
                        "path" : "rotation"
                    }
                },
                {
                    "sampler" : 11,
                    "target" : {
                        "node" : 0,
                        "path" : "scale"
                    }
                },
                {
                    "sampler" : 12,
                    "target" : {
                        "node" : 3,
                        "path" : "translation"
                    }
                },
                {
                    "sampler" : 13,
                    "target" : {
                        "node" : 3,
                        "path" : "rotation"
                    }
                },
                {
                    "sampler" : 14,
                    "target" : {
                        "node" : 3,
                        "path" : "scale"
                    }
                },
                {
                    "sampler" : 15,
                    "target" : {
                        "node" : 2,
                        "path" : "translation"
                    }
                },
                {
                    "sampler" : 16,
                    "target" : {
                        "node" : 2,
                        "path" : "rotation"
                    }
                },
                {
                    "sampler" : 17,
                    "target" : {
                        "node" : 2,
                        "path" : "scale"
                    }
                }
            ],
            "name" : "Armature|Take 001|BaseLayer",
            "samplers" : [
                {
                    "input" : 7,
                    "interpolation" : "LINEAR",
                    "output" : 8
                },
                {
                    "input" : 7,
                    "interpolation" : "LINEAR",
                    "output" : 9
                },
                {
                    "input" : 7,
                    "interpolation" : "LINEAR",
                    "output" : 10
                },
                {
                    "input" : 7,
                    "interpolation" : "LINEAR",
                    "output" : 11
                },
                {
                    "input" : 7,
                    "interpolation" : "LINEAR",
                    "output" : 12
                },
                {
                    "input" : 7,
                    "interpolation" : "LINEAR",
                    "output" : 13
                },
                {
                    "input" : 7,
                    "interpolation" : "LINEAR",
                    "output" : 14
                },
                {
                    "input" : 7,
                    "interpolation" : "LINEAR",
                    "output" : 15
                },
                {
                    "input" : 7,
                    "interpolation" : "LINEAR",
                    "output" : 16
                },
                {
                    "input" : 7,
                    "interpolation" : "LINEAR",
                    "output" : 17
                },
                {
                    "input" : 7,
                    "interpolation" : "LINEAR",
                    "output" : 18
                },
                {
                    "input" : 7,
                    "interpolation" : "LINEAR",
                    "output" : 19
                },
                {
                    "input" : 7,
                    "interpolation" : "LINEAR",
                    "output" : 20
                },
                {
                    "input" : 7,
                    "interpolation" : "LINEAR",
                    "output" : 21
                },
                {
                    "input" : 7,
                    "interpolation" : "LINEAR",
                    "output" : 22
                },
                {
                    "input" : 7,
                    "interpolation" : "LINEAR",
                    "output" : 23
                },
                {
                    "input" : 7,
                    "interpolation" : "LINEAR",
                    "output" : 24
                },
                {
                    "input" : 7,
                    "interpolation" : "LINEAR",
                    "output" : 25
                }
            ]
        }
    ],
    "materials" : [
        {
            "doubleSided" : true,
            "name" : "blinn2",
            "pbrMetallicRoughness" : {
                "baseColorTexture" : {
                    "index" : 0,
                    "texCoord" : 0
                },
                "metallicFactor" : 0,
                "roughnessFactor" : 0
            }
        }
    ],
    "meshes" : [
        {
            "name" : "Mesh",
            "primitives" : [
                {
                    "attributes" : {
                        "POSITION" : 0,
                        "NORMAL" : 1,
                        "TEXCOORD_0" : 2,
                        "JOINTS_0" : 3,
                        "WEIGHTS_0" : 4
                    },
                    "indices" : 5,
                    "material" : 0
                }
            ]
        }
    ],
    "textures" : [
        {
            "sampler" : 0,
            "source" : 0
        }
    ],
    "images" : [
        {
            "bufferView" : 6,
            "mimeType" : "image/jpeg",
            "name" : "BirdUVTexture"
        }
    ],
    "skins" : [
        {
            "inverseBindMatrices" : 6,
            "joints" : [
                5,
                4,
                1,
                0,
                3,
                2
            ],
            "name" : "Armature"
        }
    ],
    "accessors" : [
        {
            "bufferView" : 0,
            "componentType" : 5126,
            "count" : 1737,
            "max" : [
                0.2952691912651062,
                0.17707663774490356,
                0.24264387786388397
            ],
            "min" : [
                -0.28872284293174744,
                0.04652737081050873,
                -0.10557027906179428
            ],
            "type" : "VEC3"
        },
        {
            "bufferView" : 1,
            "componentType" : 5126,
            "count" : 1737,
            "type" : "VEC3"
        },
        {
            "bufferView" : 2,
            "componentType" : 5126,
            "count" : 1737,
            "type" : "VEC2"
        },
        {
            "bufferView" : 3,
            "componentType" : 5121,
            "count" : 1737,
            "type" : "VEC4"
        },
        {
            "bufferView" : 4,
            "componentType" : 5126,
            "count" : 1737,
            "type" : "VEC4"
        },
        {
            "bufferView" : 5,
            "componentType" : 5123,
            "count" : 6804,
            "type" : "SCALAR"
        },
        {
            "bufferView" : 7,
            "componentType" : 5126,
            "count" : 6,
            "type" : "MAT4"
        },
        {
            "bufferView" : 8,
            "componentType" : 5126,
            "count" : 120,
            "max" : [
                5.041666666666667
            ],
            "min" : [
                0.08333333333333333
            ],
            "type" : "SCALAR"
        },
        {
            "bufferView" : 9,
            "componentType" : 5126,
            "count" : 120,
            "type" : "VEC3"
        },
        {
            "bufferView" : 10,
            "componentType" : 5126,
            "count" : 120,
            "type" : "VEC4"
        },
        {
            "bufferView" : 11,
            "componentType" : 5126,
            "count" : 120,
            "type" : "VEC3"
        },
        {
            "bufferView" : 12,
            "componentType" : 5126,
            "count" : 120,
            "type" : "VEC3"
        },
        {
            "bufferView" : 13,
            "componentType" : 5126,
            "count" : 120,
            "type" : "VEC4"
        },
        {
            "bufferView" : 14,
            "componentType" : 5126,
            "count" : 120,
            "type" : "VEC3"
        },
        {
            "bufferView" : 15,
            "componentType" : 5126,
            "count" : 120,
            "type" : "VEC3"
        },
        {
            "bufferView" : 16,
            "componentType" : 5126,
            "count" : 120,
            "type" : "VEC4"
        },
        {
            "bufferView" : 17,
            "componentType" : 5126,
            "count" : 120,
            "type" : "VEC3"
        },
        {
            "bufferView" : 18,
            "componentType" : 5126,
            "count" : 120,
            "type" : "VEC3"
        },
        {
            "bufferView" : 19,
            "componentType" : 5126,
            "count" : 120,
            "type" : "VEC4"
        },
        {
            "bufferView" : 20,
            "componentType" : 5126,
            "count" : 120,
            "type" : "VEC3"
        },
        {
            "bufferView" : 21,
            "componentType" : 5126,
            "count" : 120,
            "type" : "VEC3"
        },
        {
            "bufferView" : 22,
            "componentType" : 5126,
            "count" : 120,
            "type" : "VEC4"
        },
        {
            "bufferView" : 23,
            "componentType" : 5126,
            "count" : 120,
            "type" : "VEC3"
        },
        {
            "bufferView" : 24,
            "componentType" : 5126,
            "count" : 120,
            "type" : "VEC3"
        },
        {
            "bufferView" : 25,
            "componentType" : 5126,
            "count" : 120,
            "type" : "VEC4"
        },
        {
            "bufferView" : 26,
            "componentType" : 5126,
            "count" : 120,
            "type" : "VEC3"
        }
    ],
    "bufferViews" : [
        {
            "buffer" : 0,
            "byteLength" : 20844,
            "byteOffset" : 0
        },
        {
            "buffer" : 0,
            "byteLength" : 20844,
            "byteOffset" : 20844
        },
        {
            "buffer" : 0,
            "byteLength" : 13896,
            "byteOffset" : 41688
        },
        {
            "buffer" : 0,
            "byteLength" : 6948,
            "byteOffset" : 55584
        },
        {
            "buffer" : 0,
            "byteLength" : 27792,
            "byteOffset" : 62532
        },
        {
            "buffer" : 0,
            "byteLength" : 13608,
            "byteOffset" : 90324
        },
        {
            "buffer" : 0,
            "byteLength" : 185767,
            "byteOffset" : 103932
        },
        {
            "buffer" : 0,
            "byteLength" : 384,
            "byteOffset" : 289700
        },
        {
            "buffer" : 0,
            "byteLength" : 480,
            "byteOffset" : 290084
        },
        {
            "buffer" : 0,
            "byteLength" : 1440,
            "byteOffset" : 290564
        },
        {
            "buffer" : 0,
            "byteLength" : 1920,
            "byteOffset" : 292004
        },
        {
            "buffer" : 0,
            "byteLength" : 1440,
            "byteOffset" : 293924
        },
        {
            "buffer" : 0,
            "byteLength" : 1440,
            "byteOffset" : 295364
        },
        {
            "buffer" : 0,
            "byteLength" : 1920,
            "byteOffset" : 296804
        },
        {
            "buffer" : 0,
            "byteLength" : 1440,
            "byteOffset" : 298724
        },
        {
            "buffer" : 0,
            "byteLength" : 1440,
            "byteOffset" : 300164
        },
        {
            "buffer" : 0,
            "byteLength" : 1920,
            "byteOffset" : 301604
        },
        {
            "buffer" : 0,
            "byteLength" : 1440,
            "byteOffset" : 303524
        },
        {
            "buffer" : 0,
            "byteLength" : 1440,
            "byteOffset" : 304964
        },
        {
            "buffer" : 0,
            "byteLength" : 1920,
            "byteOffset" : 306404
        },
        {
            "buffer" : 0,
            "byteLength" : 1440,
            "byteOffset" : 308324
        },
        {
            "buffer" : 0,
            "byteLength" : 1440,
            "byteOffset" : 309764
        },
        {
            "buffer" : 0,
            "byteLength" : 1920,
            "byteOffset" : 311204
        },
        {
            "buffer" : 0,
            "byteLength" : 1440,
            "byteOffset" : 313124
        },
        {
            "buffer" : 0,
            "byteLength" : 1440,
            "byteOffset" : 314564
        },
        {
            "buffer" : 0,
            "byteLength" : 1920,
            "byteOffset" : 316004
        },
        {
            "buffer" : 0,
            "byteLength" : 1440,
            "byteOffset" : 317924
        }
    ],
    "samplers" : [
        {
            "magFilter" : 9729,
            "minFilter" : 9986
        }
    ],
    "buffers" : [
        {
            "byteLength" : 319364,
            "uri" : "data:application/octet-stream;base64,"
        }
    ]
}
